<svg width="440" height="141" viewBox="0 0 440 141" fill="none" xmlns="http://www.w3.org/2000/svg">
<path d="M440 140H272.995L279.797 138.68C279.346 136.362 277.358 134.661 274.999 134.576L267.226 134.298L268.959 133.701L263.359 104.731C263.235 104.225 263.048 103.75 262.811 103.312C262.77 103.183 262.731 103.052 262.68 102.923L251.242 74.427H255.129V61.768L259.712 65.874L260.745 64.722L267.207 70.511C267.848 71.086 268.852 71.005 269.372 70.318C269.374 70.315 269.376 70.312 269.379 70.311C270.463 68.87 270.158 66.812 268.815 65.608L263.432 61.721L264.93 60.05L255.129 51.268V39.41C255.129 35.065 253.356 31.136 250.496 28.301V24.665L247.887 24.101V22.6V20.959H251.679C252.759 20.959 253.635 20.083 253.635 19.004V16.695V15.5H254.571C255.442 15.5 255.879 14.447 255.262 13.832L253.635 12.203V8.655C254.833 7.833 255.585 6.407 255.444 4.813C255.252 2.631 253.341 1 251.149 1H242.223C238.917 1 236.236 3.681 236.236 6.987C236.236 7.667 236.999 13.719 239.354 17.334V22.254L238.639 22.099V23.825C235.396 24.242 232.889 27.011 232.889 30.367L232.848 31.169L223.492 50.922C223.325 51.275 223.217 51.641 223.159 52.008L218.873 72.907L220.389 73.218L218.716 81.381C218.579 82.046 218.78 82.748 219.281 83.206C219.529 83.434 219.716 83.468 219.915 83.491C221.704 83.703 223.329 82.401 223.691 80.636L224.336 74.027L226.534 74.479L230.656 54.378L231.782 52.541L230.689 74.427H231.809C232.012 75.752 232.57 76.996 233.413 78.026L227.131 103.332L208.306 132.449L220.302 140H0" stroke="white" stroke-opacity="0.6" stroke-width="2" stroke-linejoin="round"/>
<path fill-rule="evenodd" clip-rule="evenodd" d="M261.507 140L260.827 136.5L260.525 136.604L251.097 108.861C251.096 108.86 251.096 108.859 251.096 108.858C250.959 108.648 250.833 108.43 250.719 108.2L244.111 94.877L237.702 110.109C237.505 110.578 237.238 111.015 236.911 111.404L219.414 132.234L223.024 135.873C224.131 136.989 224.616 138.515 224.454 140H261.507Z" stroke="white" stroke-opacity="0.6" stroke-width="2" stroke-linejoin="round"/>
</svg>
